<svg xmlns="http://www.w3.org/2000/svg" xmlns:xlink="http://www.w3.org/1999/xlink" width="500" zoomAndPan="magnify" viewBox="0 0 375 374.999991" height="500" preserveAspectRatio="xMidYMid meet" version="1.2"><defs><clipPath id="5f17f7b376"><path d="M 13.117188 164 L 88.867188 164 L 88.867188 219 L 13.117188 219 Z M 13.117188 164 "/></clipPath><clipPath id="5c74172809"><path d="M 47 153.449219 L 57 153.449219 L 57 163 L 47 163 Z M 47 153.449219 "/></clipPath></defs><g id="6a8a85b107"><path style=" stroke:none;fill-rule:nonzero;fill:#ffffff;fill-opacity:1;" d="M 40.539062 189.269531 C 38.601562 189.269531 36.753906 190.84375 36.753906 192.785156 L 36.753906 199.027344 C 36.753906 200.96875 38.601562 202.542969 40.539062 202.542969 C 42.480469 202.542969 44.328125 200.96875 44.328125 199.027344 L 44.328125 192.785156 C 44.328125 190.84375 42.480469 189.269531 40.539062 189.269531 Z M 40.539062 189.269531 "/><path style=" stroke:none;fill-rule:nonzero;fill:#ffffff;fill-opacity:1;" d="M 63.265625 189.269531 C 61.324219 189.269531 59.476562 190.84375 59.476562 192.785156 L 59.476562 199.027344 C 59.476562 200.96875 61.324219 202.542969 63.265625 202.542969 C 65.207031 202.542969 67.054688 200.96875 67.054688 199.027344 L 67.054688 192.785156 C 67.054688 190.84375 65.207031 189.269531 63.265625 189.269531 Z M 63.265625 189.269531 "/><g clip-rule="nonzero" clip-path="url(#5f17f7b376)"><path style=" stroke:none;fill-rule:nonzero;fill:#ffffff;fill-opacity:1;" d="M 87.367188 188.542969 L 83.113281 187.117188 L 83.113281 184.996094 C 83.113281 179.996094 79.359375 175.707031 74.429688 174.859375 C 70.59375 174.199219 66.652344 173.714844 62.78125 173.394531 L 61.035156 167.585938 C 60.601562 166.144531 58.921875 164.957031 57.160156 164.957031 L 46.425781 164.957031 C 44.664062 164.957031 43.023438 166.144531 42.589844 167.585938 L 40.886719 173.320312 C 37.015625 173.640625 33.558594 174.164062 29.71875 174.824219 C 24.792969 175.671875 21.601562 179.996094 21.601562 184.996094 C 21.601562 185.703125 21.601562 186.410156 21.601562 187.117188 L 15.984375 188.542969 C 14.828125 188.890625 13.117188 190.203125 13.117188 191.613281 L 13.117188 200.199219 C 13.117188 201.609375 14.828125 202.921875 15.984375 203.269531 L 21.601562 204.695312 C 21.601562 205.402344 21.601562 206.109375 21.601562 206.816406 C 21.601562 211.816406 24.792969 216.105469 29.71875 216.953125 C 37.15625 218.230469 44.476562 218.867188 51.996094 218.867188 C 59.515625 218.867188 67.09375 218.230469 74.53125 216.953125 C 79.460938 216.105469 83.113281 211.816406 83.113281 206.816406 L 83.113281 204.695312 L 87.367188 203.269531 C 88.523438 202.921875 88.867188 201.609375 88.867188 200.199219 L 88.867188 191.613281 C 88.867188 190.203125 88.523438 188.890625 87.367188 188.542969 Z M 73.71875 206.816406 C 73.71875 207.199219 73.234375 207.535156 72.875 207.597656 C 66 208.78125 58.875 209.378906 51.898438 209.378906 C 44.921875 209.378906 37.75 208.78125 30.875 207.597656 C 30.511719 207.535156 30.085938 207.199219 30.085938 206.816406 L 30.085938 184.996094 C 30.085938 184.613281 30.460938 184.277344 30.824219 184.214844 C 37.695312 183.035156 44.769531 182.433594 51.742188 182.433594 C 58.71875 182.433594 65.976562 183.035156 72.847656 184.214844 C 73.210938 184.277344 73.71875 184.613281 73.71875 184.996094 Z M 73.71875 206.816406 "/></g><g clip-rule="nonzero" clip-path="url(#5c74172809)"><path style=" stroke:none;fill-rule:nonzero;fill:#ffffff;fill-opacity:1;" d="M 56.222656 157.894531 C 56.222656 158.1875 56.191406 158.472656 56.136719 158.757812 C 56.078125 159.042969 55.996094 159.320312 55.882812 159.589844 C 55.773438 159.859375 55.636719 160.113281 55.476562 160.355469 C 55.3125 160.597656 55.128906 160.820312 54.925781 161.027344 C 54.71875 161.234375 54.496094 161.417969 54.253906 161.578125 C 54.011719 161.738281 53.757812 161.875 53.488281 161.988281 C 53.21875 162.097656 52.941406 162.183594 52.65625 162.238281 C 52.371094 162.296875 52.085938 162.324219 51.792969 162.324219 C 51.503906 162.324219 51.214844 162.296875 50.929688 162.238281 C 50.644531 162.183594 50.367188 162.097656 50.097656 161.988281 C 49.832031 161.875 49.574219 161.738281 49.332031 161.578125 C 49.089844 161.417969 48.867188 161.234375 48.664062 161.027344 C 48.457031 160.820312 48.273438 160.597656 48.113281 160.355469 C 47.949219 160.113281 47.8125 159.859375 47.703125 159.589844 C 47.589844 159.320312 47.507812 159.042969 47.449219 158.757812 C 47.394531 158.472656 47.367188 158.1875 47.367188 157.894531 C 47.367188 157.605469 47.394531 157.316406 47.449219 157.03125 C 47.507812 156.746094 47.589844 156.46875 47.703125 156.203125 C 47.8125 155.933594 47.949219 155.675781 48.113281 155.4375 C 48.273438 155.195312 48.457031 154.96875 48.664062 154.765625 C 48.867188 154.558594 49.089844 154.375 49.332031 154.214844 C 49.574219 154.050781 49.832031 153.917969 50.097656 153.804688 C 50.367188 153.695312 50.644531 153.609375 50.929688 153.554688 C 51.214844 153.496094 51.503906 153.46875 51.792969 153.46875 C 52.085938 153.46875 52.371094 153.496094 52.65625 153.554688 C 52.941406 153.609375 53.21875 153.695312 53.488281 153.804688 C 53.757812 153.917969 54.011719 154.050781 54.253906 154.214844 C 54.496094 154.375 54.71875 154.558594 54.925781 154.765625 C 55.128906 154.96875 55.3125 155.195312 55.476562 155.4375 C 55.636719 155.675781 55.773438 155.933594 55.882812 156.203125 C 55.996094 156.46875 56.078125 156.746094 56.136719 157.03125 C 56.191406 157.316406 56.222656 157.605469 56.222656 157.894531 Z M 56.222656 157.894531 "/></g><g style="fill:#ffffff;fill-opacity:1;"><g transform="translate(102.023537, 207.434995)"><path style="stroke:none" d="M 24.171875 -43.390625 C 28.097656 -43.390625 31.503906 -42.738281 34.390625 -41.4375 C 37.285156 -40.132812 39.519531 -38.273438 41.09375 -35.859375 C 42.664062 -33.441406 43.453125 -30.597656 43.453125 -27.328125 C 43.453125 -24.066406 42.664062 -21.238281 41.09375 -18.84375 C 39.519531 -16.445312 37.285156 -14.597656 34.390625 -13.296875 C 31.503906 -11.992188 28.097656 -11.34375 24.171875 -11.34375 L 16.609375 -11.34375 L 16.609375 0 L 4.34375 0 L 4.34375 -43.390625 Z M 23.4375 -21.015625 C 25.957031 -21.015625 27.851562 -21.5625 29.125 -22.65625 C 30.40625 -23.75 31.046875 -25.304688 31.046875 -27.328125 C 31.046875 -29.359375 30.40625 -30.929688 29.125 -32.046875 C 27.851562 -33.160156 25.957031 -33.71875 23.4375 -33.71875 L 16.609375 -33.71875 L 16.609375 -21.015625 Z M 23.4375 -21.015625 "/></g></g><g style="fill:#ffffff;fill-opacity:1;"><g transform="translate(158.17277, 207.434995)"><path style="stroke:none" d="M 15 -29.5625 C 16.195312 -31.09375 17.753906 -32.238281 19.671875 -33 C 21.597656 -33.769531 23.800781 -34.15625 26.28125 -34.15625 L 26.28125 -23.546875 C 25.207031 -23.671875 24.316406 -23.734375 23.609375 -23.734375 C 21.085938 -23.734375 19.113281 -23.050781 17.6875 -21.6875 C 16.269531 -20.332031 15.5625 -18.25 15.5625 -15.4375 L 15.5625 0 L 3.78125 0 L 3.78125 -33.59375 L 15 -33.59375 Z M 15 -29.5625 "/></g></g><g style="fill:#ffffff;fill-opacity:1;"><g transform="translate(196.103282, 207.434995)"><path style="stroke:none" d="M 18.09375 -34.15625 C 23.675781 -34.15625 27.929688 -32.882812 30.859375 -30.34375 C 33.796875 -27.800781 35.265625 -23.90625 35.265625 -18.65625 L 35.265625 0 L 24.296875 0 L 24.296875 -4.34375 C 22.597656 -1.070312 19.289062 0.5625 14.375 0.5625 C 11.769531 0.5625 9.515625 0.109375 7.609375 -0.796875 C 5.710938 -1.710938 4.28125 -2.941406 3.3125 -4.484375 C 2.34375 -6.035156 1.859375 -7.804688 1.859375 -9.796875 C 1.859375 -12.972656 3.078125 -15.4375 5.515625 -17.1875 C 7.953125 -18.945312 11.710938 -19.828125 16.796875 -19.828125 L 23.484375 -19.828125 C 23.285156 -23.390625 20.910156 -25.171875 16.359375 -25.171875 C 14.753906 -25.171875 13.125 -24.910156 11.46875 -24.390625 C 9.8125 -23.867188 8.40625 -23.15625 7.25 -22.25 L 3.28125 -30.25 C 5.144531 -31.488281 7.410156 -32.445312 10.078125 -33.125 C 12.742188 -33.8125 15.414062 -34.15625 18.09375 -34.15625 Z M 17.671875 -6.875 C 19.035156 -6.875 20.234375 -7.203125 21.265625 -7.859375 C 22.296875 -8.523438 23.035156 -9.5 23.484375 -10.78125 L 23.484375 -13.703125 L 18.40625 -13.703125 C 14.976562 -13.703125 13.265625 -12.566406 13.265625 -10.296875 C 13.265625 -9.253906 13.65625 -8.421875 14.4375 -7.796875 C 15.226562 -7.179688 16.304688 -6.875 17.671875 -6.875 Z M 17.671875 -6.875 "/></g></g><g style="fill:#ffffff;fill-opacity:1;"><g transform="translate(245.497944, 207.434995)"><path style="stroke:none" d="M 39.484375 -46 L 39.484375 0 L 28.265625 0 L 28.265625 -3.34375 C 26.078125 -0.738281 22.789062 0.5625 18.40625 0.5625 C 15.351562 0.5625 12.566406 -0.148438 10.046875 -1.578125 C 7.523438 -3.003906 5.53125 -5.039062 4.0625 -7.6875 C 2.59375 -10.332031 1.859375 -13.390625 1.859375 -16.859375 C 1.859375 -20.328125 2.59375 -23.375 4.0625 -26 C 5.53125 -28.625 7.523438 -30.640625 10.046875 -32.046875 C 12.566406 -33.453125 15.351562 -34.15625 18.40625 -34.15625 C 22.414062 -34.15625 25.515625 -33 27.703125 -30.6875 L 27.703125 -46 Z M 20.890625 -8.796875 C 22.910156 -8.796875 24.582031 -9.507812 25.90625 -10.9375 C 27.226562 -12.363281 27.890625 -14.335938 27.890625 -16.859375 C 27.890625 -19.335938 27.238281 -21.28125 25.9375 -22.6875 C 24.632812 -24.09375 22.953125 -24.796875 20.890625 -24.796875 C 18.828125 -24.796875 17.132812 -24.09375 15.8125 -22.6875 C 14.488281 -21.28125 13.828125 -19.335938 13.828125 -16.859375 C 13.828125 -14.335938 14.488281 -12.363281 15.8125 -10.9375 C 17.132812 -9.507812 18.828125 -8.796875 20.890625 -8.796875 Z M 20.890625 -8.796875 "/></g></g><g style="fill:#ffffff;fill-opacity:1;"><g transform="translate(299.230398, 207.434995)"><path style="stroke:none" d="M 20.640625 0.5625 C 17.046875 0.5625 13.800781 -0.179688 10.90625 -1.671875 C 8.019531 -3.160156 5.757812 -5.226562 4.125 -7.875 C 2.488281 -10.519531 1.671875 -13.515625 1.671875 -16.859375 C 1.671875 -20.160156 2.488281 -23.132812 4.125 -25.78125 C 5.757812 -28.425781 8.007812 -30.484375 10.875 -31.953125 C 13.75 -33.421875 17.003906 -34.15625 20.640625 -34.15625 C 24.273438 -34.15625 27.535156 -33.421875 30.421875 -31.953125 C 33.316406 -30.484375 35.570312 -28.4375 37.1875 -25.8125 C 38.800781 -23.1875 39.609375 -20.203125 39.609375 -16.859375 C 39.609375 -13.515625 38.800781 -10.519531 37.1875 -7.875 C 35.570312 -5.226562 33.316406 -3.160156 30.421875 -1.671875 C 27.535156 -0.179688 24.273438 0.5625 20.640625 0.5625 Z M 20.640625 -8.796875 C 22.703125 -8.796875 24.394531 -9.507812 25.71875 -10.9375 C 27.039062 -12.363281 27.703125 -14.335938 27.703125 -16.859375 C 27.703125 -19.335938 27.039062 -21.28125 25.71875 -22.6875 C 24.394531 -24.09375 22.703125 -24.796875 20.640625 -24.796875 C 18.578125 -24.796875 16.882812 -24.09375 15.5625 -22.6875 C 14.238281 -21.28125 13.578125 -19.335938 13.578125 -16.859375 C 13.578125 -14.335938 14.238281 -12.363281 15.5625 -10.9375 C 16.882812 -9.507812 18.578125 -8.796875 20.640625 -8.796875 Z M 20.640625 -8.796875 "/></g></g><g style="fill:#00bc61;fill-opacity:1;"><g transform="translate(105.126538, 222.596534)"><path style="stroke:none" d="M 4.375 0.171875 C 3.59375 0.171875 2.84375 0.0664062 2.125 -0.140625 C 1.40625 -0.347656 0.828125 -0.625 0.390625 -0.96875 L 1.15625 -2.671875 C 1.570312 -2.359375 2.066406 -2.109375 2.640625 -1.921875 C 3.222656 -1.734375 3.800781 -1.640625 4.375 -1.640625 C 5.019531 -1.640625 5.492188 -1.734375 5.796875 -1.921875 C 6.109375 -2.117188 6.265625 -2.375 6.265625 -2.6875 C 6.265625 -2.925781 6.171875 -3.117188 5.984375 -3.265625 C 5.804688 -3.421875 5.578125 -3.546875 5.296875 -3.640625 C 5.015625 -3.734375 4.628906 -3.835938 4.140625 -3.953125 C 3.398438 -4.128906 2.789062 -4.304688 2.3125 -4.484375 C 1.84375 -4.660156 1.4375 -4.941406 1.09375 -5.328125 C 0.757812 -5.722656 0.59375 -6.242188 0.59375 -6.890625 C 0.59375 -7.460938 0.742188 -7.976562 1.046875 -8.4375 C 1.347656 -8.894531 1.804688 -9.257812 2.421875 -9.53125 C 3.046875 -9.800781 3.804688 -9.9375 4.703125 -9.9375 C 5.328125 -9.9375 5.9375 -9.859375 6.53125 -9.703125 C 7.125 -9.554688 7.644531 -9.34375 8.09375 -9.0625 L 7.390625 -7.359375 C 6.492188 -7.867188 5.59375 -8.125 4.6875 -8.125 C 4.050781 -8.125 3.582031 -8.019531 3.28125 -7.8125 C 2.976562 -7.601562 2.828125 -7.332031 2.828125 -7 C 2.828125 -6.664062 3 -6.414062 3.34375 -6.25 C 3.695312 -6.09375 4.234375 -5.9375 4.953125 -5.78125 C 5.691406 -5.601562 6.300781 -5.425781 6.78125 -5.25 C 7.257812 -5.070312 7.664062 -4.789062 8 -4.40625 C 8.34375 -4.03125 8.515625 -3.515625 8.515625 -2.859375 C 8.515625 -2.296875 8.359375 -1.785156 8.046875 -1.328125 C 7.734375 -0.867188 7.265625 -0.503906 6.640625 -0.234375 C 6.015625 0.0351562 5.257812 0.171875 4.375 0.171875 Z M 4.375 0.171875 "/></g></g><g style="fill:#00bc61;fill-opacity:1;"><g transform="translate(119.237111, 222.596534)"><path style="stroke:none" d="M 5.890625 0.171875 C 4.878906 0.171875 3.960938 -0.046875 3.140625 -0.484375 C 2.328125 -0.921875 1.691406 -1.523438 1.234375 -2.296875 C 0.773438 -3.066406 0.546875 -3.929688 0.546875 -4.890625 C 0.546875 -5.847656 0.773438 -6.707031 1.234375 -7.46875 C 1.691406 -8.238281 2.328125 -8.84375 3.140625 -9.28125 C 3.960938 -9.71875 4.878906 -9.9375 5.890625 -9.9375 C 6.898438 -9.9375 7.8125 -9.71875 8.625 -9.28125 C 9.4375 -8.84375 10.070312 -8.238281 10.53125 -7.46875 C 11 -6.707031 11.234375 -5.847656 11.234375 -4.890625 C 11.234375 -3.929688 11 -3.066406 10.53125 -2.296875 C 10.070312 -1.523438 9.4375 -0.921875 8.625 -0.484375 C 7.8125 -0.046875 6.898438 0.171875 5.890625 0.171875 Z M 5.890625 -1.765625 C 6.460938 -1.765625 6.984375 -1.894531 7.453125 -2.15625 C 7.921875 -2.414062 8.285156 -2.785156 8.546875 -3.265625 C 8.804688 -3.742188 8.9375 -4.285156 8.9375 -4.890625 C 8.9375 -5.492188 8.804688 -6.03125 8.546875 -6.5 C 8.285156 -6.976562 7.921875 -7.347656 7.453125 -7.609375 C 6.984375 -7.878906 6.460938 -8.015625 5.890625 -8.015625 C 5.304688 -8.015625 4.78125 -7.878906 4.3125 -7.609375 C 3.851562 -7.347656 3.488281 -6.976562 3.21875 -6.5 C 2.957031 -6.03125 2.828125 -5.492188 2.828125 -4.890625 C 2.828125 -4.285156 2.957031 -3.742188 3.21875 -3.265625 C 3.488281 -2.785156 3.851562 -2.414062 4.3125 -2.15625 C 4.78125 -1.894531 5.304688 -1.765625 5.890625 -1.765625 Z M 5.890625 -1.765625 "/></g></g><g style="fill:#00bc61;fill-opacity:1;"><g transform="translate(136.222843, 222.596534)"><path style="stroke:none" d="M 1.15625 -9.765625 L 3.421875 -9.765625 L 3.421875 -1.84375 L 8.3125 -1.84375 L 8.3125 0 L 1.15625 0 Z M 1.15625 -9.765625 "/></g></g><g style="fill:#00bc61;fill-opacity:1;"><g transform="translate(149.858873, 222.596534)"><path style="stroke:none" d="M 5.5 0.171875 C 4.101562 0.171875 3.015625 -0.210938 2.234375 -0.984375 C 1.460938 -1.765625 1.078125 -2.867188 1.078125 -4.296875 L 1.078125 -9.765625 L 3.328125 -9.765625 L 3.328125 -4.375 C 3.328125 -2.632812 4.054688 -1.765625 5.515625 -1.765625 C 6.222656 -1.765625 6.757812 -1.972656 7.125 -2.390625 C 7.5 -2.816406 7.6875 -3.476562 7.6875 -4.375 L 7.6875 -9.765625 L 9.921875 -9.765625 L 9.921875 -4.296875 C 9.921875 -2.867188 9.53125 -1.765625 8.75 -0.984375 C 7.976562 -0.210938 6.894531 0.171875 5.5 0.171875 Z M 5.5 0.171875 "/></g></g><g style="fill:#00bc61;fill-opacity:1;"><g transform="translate(166.063016, 222.596534)"><path style="stroke:none" d="M 5.828125 0.171875 C 4.835938 0.171875 3.9375 -0.0390625 3.125 -0.46875 C 2.320312 -0.90625 1.691406 -1.507812 1.234375 -2.28125 C 0.773438 -3.050781 0.546875 -3.921875 0.546875 -4.890625 C 0.546875 -5.847656 0.773438 -6.710938 1.234375 -7.484375 C 1.691406 -8.253906 2.320312 -8.851562 3.125 -9.28125 C 3.9375 -9.71875 4.84375 -9.9375 5.84375 -9.9375 C 6.6875 -9.9375 7.453125 -9.785156 8.140625 -9.484375 C 8.828125 -9.191406 9.398438 -8.765625 9.859375 -8.203125 L 8.40625 -6.859375 C 7.75 -7.628906 6.929688 -8.015625 5.953125 -8.015625 C 5.347656 -8.015625 4.804688 -7.878906 4.328125 -7.609375 C 3.859375 -7.347656 3.488281 -6.976562 3.21875 -6.5 C 2.957031 -6.03125 2.828125 -5.492188 2.828125 -4.890625 C 2.828125 -4.285156 2.957031 -3.742188 3.21875 -3.265625 C 3.488281 -2.785156 3.859375 -2.414062 4.328125 -2.15625 C 4.804688 -1.894531 5.347656 -1.765625 5.953125 -1.765625 C 6.929688 -1.765625 7.75 -2.148438 8.40625 -2.921875 L 9.859375 -1.578125 C 9.398438 -1.003906 8.828125 -0.566406 8.140625 -0.265625 C 7.453125 0.0234375 6.679688 0.171875 5.828125 0.171875 Z M 5.078125 3.234375 C 4.828125 3.234375 4.585938 3.207031 4.359375 3.15625 C 4.128906 3.101562 3.9375 3.03125 3.78125 2.9375 L 4.109375 2.015625 C 4.410156 2.148438 4.710938 2.21875 5.015625 2.21875 C 5.492188 2.21875 5.734375 2.066406 5.734375 1.765625 C 5.734375 1.503906 5.507812 1.375 5.0625 1.375 L 4.578125 1.375 L 4.953125 -0.109375 L 6.109375 -0.109375 L 5.90625 0.703125 C 6.320312 0.742188 6.628906 0.867188 6.828125 1.078125 C 7.023438 1.285156 7.125 1.546875 7.125 1.859375 C 7.125 2.285156 6.9375 2.617188 6.5625 2.859375 C 6.1875 3.109375 5.691406 3.234375 5.078125 3.234375 Z M 5.078125 3.234375 "/></g></g><g style="fill:#00bc61;fill-opacity:1;"><g transform="translate(181.499521, 222.596534)"><path style="stroke:none" d="M 5.890625 0.171875 C 4.878906 0.171875 3.960938 -0.046875 3.140625 -0.484375 C 2.328125 -0.921875 1.691406 -1.523438 1.234375 -2.296875 C 0.773438 -3.066406 0.546875 -3.929688 0.546875 -4.890625 C 0.546875 -5.847656 0.773438 -6.707031 1.234375 -7.46875 C 1.691406 -8.238281 2.328125 -8.84375 3.140625 -9.28125 C 3.960938 -9.71875 4.878906 -9.9375 5.890625 -9.9375 C 6.898438 -9.9375 7.8125 -9.71875 8.625 -9.28125 C 9.4375 -8.84375 10.070312 -8.238281 10.53125 -7.46875 C 11 -6.707031 11.234375 -5.847656 11.234375 -4.890625 C 11.234375 -3.929688 11 -3.066406 10.53125 -2.296875 C 10.070312 -1.523438 9.4375 -0.921875 8.625 -0.484375 C 7.8125 -0.046875 6.898438 0.171875 5.890625 0.171875 Z M 5.890625 -1.765625 C 6.460938 -1.765625 6.984375 -1.894531 7.453125 -2.15625 C 7.921875 -2.414062 8.285156 -2.785156 8.546875 -3.265625 C 8.804688 -3.742188 8.9375 -4.285156 8.9375 -4.890625 C 8.9375 -5.492188 8.804688 -6.03125 8.546875 -6.5 C 8.285156 -6.976562 7.921875 -7.347656 7.453125 -7.609375 C 6.984375 -7.878906 6.460938 -8.015625 5.890625 -8.015625 C 5.304688 -8.015625 4.78125 -7.878906 4.3125 -7.609375 C 3.851562 -7.347656 3.488281 -6.976562 3.21875 -6.5 C 2.957031 -6.03125 2.828125 -5.492188 2.828125 -4.890625 C 2.828125 -4.285156 2.957031 -3.742188 3.21875 -3.265625 C 3.488281 -2.785156 3.851562 -2.414062 4.3125 -2.15625 C 4.78125 -1.894531 5.304688 -1.765625 5.890625 -1.765625 Z M 6.9375 -10.515625 C 6.6875 -10.515625 6.460938 -10.5625 6.265625 -10.65625 C 6.078125 -10.757812 5.867188 -10.894531 5.640625 -11.0625 C 5.492188 -11.175781 5.367188 -11.257812 5.265625 -11.3125 C 5.171875 -11.375 5.078125 -11.40625 4.984375 -11.40625 C 4.785156 -11.40625 4.625 -11.335938 4.5 -11.203125 C 4.382812 -11.066406 4.320312 -10.875 4.3125 -10.625 L 3.21875 -10.625 C 3.226562 -11.238281 3.378906 -11.726562 3.671875 -12.09375 C 3.972656 -12.46875 4.363281 -12.65625 4.84375 -12.65625 C 5.082031 -12.65625 5.296875 -12.601562 5.484375 -12.5 C 5.679688 -12.40625 5.898438 -12.269531 6.140625 -12.09375 C 6.285156 -11.988281 6.40625 -11.90625 6.5 -11.84375 C 6.601562 -11.789062 6.703125 -11.765625 6.796875 -11.765625 C 6.984375 -11.765625 7.140625 -11.832031 7.265625 -11.96875 C 7.390625 -12.101562 7.457031 -12.285156 7.46875 -12.515625 L 8.578125 -12.515625 C 8.554688 -11.910156 8.398438 -11.425781 8.109375 -11.0625 C 7.816406 -10.695312 7.425781 -10.515625 6.9375 -10.515625 Z M 6.9375 -10.515625 "/></g></g><g style="fill:#00bc61;fill-opacity:1;"><g transform="translate(198.485252, 222.596534)"><path style="stroke:none" d="M 8.71875 -1.8125 L 8.71875 0 L 1.15625 0 L 1.15625 -9.765625 L 8.546875 -9.765625 L 8.546875 -7.953125 L 3.40625 -7.953125 L 3.40625 -5.828125 L 7.9375 -5.828125 L 7.9375 -4.078125 L 3.40625 -4.078125 L 3.40625 -1.8125 Z M 8.71875 -1.8125 "/></g></g><g style="fill:#00bc61;fill-opacity:1;"><g transform="translate(213.05642, 222.596534)"><path style="stroke:none" d="M 4.375 0.171875 C 3.59375 0.171875 2.84375 0.0664062 2.125 -0.140625 C 1.40625 -0.347656 0.828125 -0.625 0.390625 -0.96875 L 1.15625 -2.671875 C 1.570312 -2.359375 2.066406 -2.109375 2.640625 -1.921875 C 3.222656 -1.734375 3.800781 -1.640625 4.375 -1.640625 C 5.019531 -1.640625 5.492188 -1.734375 5.796875 -1.921875 C 6.109375 -2.117188 6.265625 -2.375 6.265625 -2.6875 C 6.265625 -2.925781 6.171875 -3.117188 5.984375 -3.265625 C 5.804688 -3.421875 5.578125 -3.546875 5.296875 -3.640625 C 5.015625 -3.734375 4.628906 -3.835938 4.140625 -3.953125 C 3.398438 -4.128906 2.789062 -4.304688 2.3125 -4.484375 C 1.84375 -4.660156 1.4375 -4.941406 1.09375 -5.328125 C 0.757812 -5.722656 0.59375 -6.242188 0.59375 -6.890625 C 0.59375 -7.460938 0.742188 -7.976562 1.046875 -8.4375 C 1.347656 -8.894531 1.804688 -9.257812 2.421875 -9.53125 C 3.046875 -9.800781 3.804688 -9.9375 4.703125 -9.9375 C 5.328125 -9.9375 5.9375 -9.859375 6.53125 -9.703125 C 7.125 -9.554688 7.644531 -9.34375 8.09375 -9.0625 L 7.390625 -7.359375 C 6.492188 -7.867188 5.59375 -8.125 4.6875 -8.125 C 4.050781 -8.125 3.582031 -8.019531 3.28125 -7.8125 C 2.976562 -7.601562 2.828125 -7.332031 2.828125 -7 C 2.828125 -6.664062 3 -6.414062 3.34375 -6.25 C 3.695312 -6.09375 4.234375 -5.9375 4.953125 -5.78125 C 5.691406 -5.601562 6.300781 -5.425781 6.78125 -5.25 C 7.257812 -5.070312 7.664062 -4.789062 8 -4.40625 C 8.34375 -4.03125 8.515625 -3.515625 8.515625 -2.859375 C 8.515625 -2.296875 8.359375 -1.785156 8.046875 -1.328125 C 7.734375 -0.867188 7.265625 -0.503906 6.640625 -0.234375 C 6.015625 0.0351562 5.257812 0.171875 4.375 0.171875 Z M 4.375 0.171875 "/></g></g><g style="fill:#00bc61;fill-opacity:1;"><g transform="translate(227.166993, 222.596534)"><path style="stroke:none" d=""/></g></g><g style="fill:#00bc61;fill-opacity:1;"><g transform="translate(236.322807, 222.596534)"><path style="stroke:none" d="M 1.15625 -9.765625 L 5.59375 -9.765625 C 6.65625 -9.765625 7.59375 -9.5625 8.40625 -9.15625 C 9.21875 -8.75 9.847656 -8.175781 10.296875 -7.4375 C 10.753906 -6.707031 10.984375 -5.859375 10.984375 -4.890625 C 10.984375 -3.910156 10.753906 -3.050781 10.296875 -2.3125 C 9.847656 -1.582031 9.21875 -1.015625 8.40625 -0.609375 C 7.59375 -0.203125 6.65625 0 5.59375 0 L 1.15625 0 Z M 5.484375 -1.859375 C 6.460938 -1.859375 7.238281 -2.128906 7.8125 -2.671875 C 8.394531 -3.210938 8.6875 -3.953125 8.6875 -4.890625 C 8.6875 -5.816406 8.394531 -6.550781 7.8125 -7.09375 C 7.238281 -7.632812 6.460938 -7.90625 5.484375 -7.90625 L 3.421875 -7.90625 L 3.421875 -1.859375 Z M 5.484375 -1.859375 "/></g></g><g style="fill:#00bc61;fill-opacity:1;"><g transform="translate(253.057308, 222.596534)"><path style="stroke:none" d="M 1.15625 -9.765625 L 3.421875 -9.765625 L 3.421875 0 L 1.15625 0 Z M 1.15625 -9.765625 "/></g></g><g style="fill:#00bc61;fill-opacity:1;"><g transform="translate(262.841196, 222.596534)"><path style="stroke:none" d="M 7.765625 -5.03125 L 9.828125 -5.03125 L 9.828125 -1.078125 C 9.296875 -0.671875 8.679688 -0.359375 7.984375 -0.140625 C 7.285156 0.0664062 6.582031 0.171875 5.875 0.171875 C 4.863281 0.171875 3.953125 -0.0390625 3.140625 -0.46875 C 2.328125 -0.90625 1.691406 -1.507812 1.234375 -2.28125 C 0.773438 -3.050781 0.546875 -3.921875 0.546875 -4.890625 C 0.546875 -5.847656 0.773438 -6.710938 1.234375 -7.484375 C 1.691406 -8.253906 2.328125 -8.851562 3.140625 -9.28125 C 3.960938 -9.71875 4.890625 -9.9375 5.921875 -9.9375 C 6.773438 -9.9375 7.550781 -9.789062 8.25 -9.5 C 8.945312 -9.207031 9.53125 -8.789062 10 -8.25 L 8.546875 -6.90625 C 7.847656 -7.644531 7.007812 -8.015625 6.03125 -8.015625 C 5.40625 -8.015625 4.847656 -7.882812 4.359375 -7.625 C 3.878906 -7.363281 3.503906 -6.992188 3.234375 -6.515625 C 2.960938 -6.035156 2.828125 -5.492188 2.828125 -4.890625 C 2.828125 -4.285156 2.960938 -3.742188 3.234375 -3.265625 C 3.503906 -2.785156 3.878906 -2.414062 4.359375 -2.15625 C 4.835938 -1.894531 5.382812 -1.765625 6 -1.765625 C 6.65625 -1.765625 7.242188 -1.898438 7.765625 -2.171875 Z M 7.765625 -5.03125 "/></g></g><g style="fill:#00bc61;fill-opacity:1;"><g transform="translate(278.808059, 222.596534)"><path style="stroke:none" d="M 1.15625 -9.765625 L 3.421875 -9.765625 L 3.421875 0 L 1.15625 0 Z M 1.15625 -9.765625 "/></g></g><g style="fill:#00bc61;fill-opacity:1;"><g transform="translate(288.591947, 222.596534)"><path style="stroke:none" d="M 3.1875 -7.921875 L 0.0625 -7.921875 L 0.0625 -9.765625 L 8.5625 -9.765625 L 8.5625 -7.921875 L 5.4375 -7.921875 L 5.4375 0 L 3.1875 0 Z M 3.1875 -7.921875 "/></g></g><g style="fill:#00bc61;fill-opacity:1;"><g transform="translate(302.423375, 222.596534)"><path style="stroke:none" d="M 7.59375 -2.09375 L 3.0625 -2.09375 L 2.1875 0 L -0.125 0 L 4.234375 -9.765625 L 6.453125 -9.765625 L 10.828125 0 L 8.453125 0 Z M 6.875 -3.8125 L 5.328125 -7.546875 L 3.78125 -3.8125 Z M 6.875 -3.8125 "/></g></g><g style="fill:#00bc61;fill-opacity:1;"><g transform="translate(318.320455, 222.596534)"><path style="stroke:none" d="M 1.15625 -9.765625 L 3.421875 -9.765625 L 3.421875 0 L 1.15625 0 Z M 1.15625 -9.765625 "/></g></g><g style="fill:#00bc61;fill-opacity:1;"><g transform="translate(328.104343, 222.596534)"><path style="stroke:none" d="M 4.375 0.171875 C 3.59375 0.171875 2.84375 0.0664062 2.125 -0.140625 C 1.40625 -0.347656 0.828125 -0.625 0.390625 -0.96875 L 1.15625 -2.671875 C 1.570312 -2.359375 2.066406 -2.109375 2.640625 -1.921875 C 3.222656 -1.734375 3.800781 -1.640625 4.375 -1.640625 C 5.019531 -1.640625 5.492188 -1.734375 5.796875 -1.921875 C 6.109375 -2.117188 6.265625 -2.375 6.265625 -2.6875 C 6.265625 -2.925781 6.171875 -3.117188 5.984375 -3.265625 C 5.804688 -3.421875 5.578125 -3.546875 5.296875 -3.640625 C 5.015625 -3.734375 4.628906 -3.835938 4.140625 -3.953125 C 3.398438 -4.128906 2.789062 -4.304688 2.3125 -4.484375 C 1.84375 -4.660156 1.4375 -4.941406 1.09375 -5.328125 C 0.757812 -5.722656 0.59375 -6.242188 0.59375 -6.890625 C 0.59375 -7.460938 0.742188 -7.976562 1.046875 -8.4375 C 1.347656 -8.894531 1.804688 -9.257812 2.421875 -9.53125 C 3.046875 -9.800781 3.804688 -9.9375 4.703125 -9.9375 C 5.328125 -9.9375 5.9375 -9.859375 6.53125 -9.703125 C 7.125 -9.554688 7.644531 -9.34375 8.09375 -9.0625 L 7.390625 -7.359375 C 6.492188 -7.867188 5.59375 -8.125 4.6875 -8.125 C 4.050781 -8.125 3.582031 -8.019531 3.28125 -7.8125 C 2.976562 -7.601562 2.828125 -7.332031 2.828125 -7 C 2.828125 -6.664062 3 -6.414062 3.34375 -6.25 C 3.695312 -6.09375 4.234375 -5.9375 4.953125 -5.78125 C 5.691406 -5.601562 6.300781 -5.425781 6.78125 -5.25 C 7.257812 -5.070312 7.664062 -4.789062 8 -4.40625 C 8.34375 -4.03125 8.515625 -3.515625 8.515625 -2.859375 C 8.515625 -2.296875 8.359375 -1.785156 8.046875 -1.328125 C 7.734375 -0.867188 7.265625 -0.503906 6.640625 -0.234375 C 6.015625 0.0351562 5.257812 0.171875 4.375 0.171875 Z M 4.375 0.171875 "/></g></g></g></svg>